<mxfile host="app.diagrams.net" agent="Mozilla/5.0 (Windows NT 10.0; Win64; x64) AppleWebKit/537.36 (KHTML, like Gecko) Chrome/130.0.0.0 Safari/537.36" version="24.8.3">
  <diagram name="Page-1" id="o49JuMgyN47GpCr__RES">
    <mxGraphModel dx="1235" dy="1765" grid="1" gridSize="10" guides="1" tooltips="1" connect="1" arrows="1" fold="1" page="1" pageScale="1" pageWidth="850" pageHeight="1100" math="0" shadow="0">
      <root>
        <mxCell id="0" />
        <mxCell id="1" parent="0" />
        <mxCell id="Pp8aDYr57oXMw8BSufgp-11" value="ESP32 microcontroller" style="rounded=0;whiteSpace=wrap;html=1;" parent="1" vertex="1">
          <mxGeometry x="230" y="150" width="120" height="60" as="geometry" />
        </mxCell>
        <mxCell id="Pp8aDYr57oXMw8BSufgp-12" value="OLED Display" style="rounded=0;whiteSpace=wrap;html=1;" parent="1" vertex="1">
          <mxGeometry x="230" y="60" width="125" height="50" as="geometry" />
        </mxCell>
        <mxCell id="Pp8aDYr57oXMw8BSufgp-29" value="Signal Noise Filter" style="whiteSpace=wrap;html=1;" parent="1" vertex="1">
          <mxGeometry x="470" y="450" width="120" height="60" as="geometry" />
        </mxCell>
        <mxCell id="Pp8aDYr57oXMw8BSufgp-38" value="Fuzz/Distortion" style="rounded=0;whiteSpace=wrap;html=1;" parent="1" vertex="1">
          <mxGeometry x="470" y="150" width="120" height="60" as="geometry" />
        </mxCell>
        <mxCell id="g3IbCRf7m9BQPBcuyKC2-77" value="" style="edgeStyle=orthogonalEdgeStyle;rounded=0;orthogonalLoop=1;jettySize=auto;html=1;" parent="1" source="g3IbCRf7m9BQPBcuyKC2-56" target="Pp8aDYr57oXMw8BSufgp-39" edge="1">
          <mxGeometry relative="1" as="geometry" />
        </mxCell>
        <mxCell id="Pp8aDYr57oXMw8BSufgp-39" value="Class D Amp" style="rounded=0;whiteSpace=wrap;html=1;" parent="1" vertex="1">
          <mxGeometry x="470" y="550" width="120" height="60" as="geometry" />
        </mxCell>
        <mxCell id="g3IbCRf7m9BQPBcuyKC2-80" style="edgeStyle=orthogonalEdgeStyle;rounded=0;orthogonalLoop=1;jettySize=auto;html=1;entryX=0;entryY=0.5;entryDx=0;entryDy=0;" parent="1" source="g3IbCRf7m9BQPBcuyKC2-2" target="g3IbCRf7m9BQPBcuyKC2-13" edge="1">
          <mxGeometry relative="1" as="geometry" />
        </mxCell>
        <mxCell id="g3IbCRf7m9BQPBcuyKC2-82" style="edgeStyle=orthogonalEdgeStyle;rounded=0;orthogonalLoop=1;jettySize=auto;html=1;entryX=0;entryY=0.5;entryDx=0;entryDy=0;" parent="1" source="g3IbCRf7m9BQPBcuyKC2-2" target="Pp8aDYr57oXMw8BSufgp-39" edge="1">
          <mxGeometry relative="1" as="geometry" />
        </mxCell>
        <mxCell id="g3IbCRf7m9BQPBcuyKC2-2" value="Power Supply" style="rounded=0;whiteSpace=wrap;html=1;" parent="1" vertex="1">
          <mxGeometry x="100" y="350" width="100" height="40" as="geometry" />
        </mxCell>
        <mxCell id="g3IbCRf7m9BQPBcuyKC2-4" value="" style="endArrow=classic;html=1;rounded=0;" parent="1" edge="1">
          <mxGeometry width="50" height="50" relative="1" as="geometry">
            <mxPoint x="60" y="370.15999999999997" as="sourcePoint" />
            <mxPoint x="100" y="369.65999999999997" as="targetPoint" />
          </mxGeometry>
        </mxCell>
        <mxCell id="g3IbCRf7m9BQPBcuyKC2-5" value="9V" style="text;html=1;align=center;verticalAlign=middle;resizable=0;points=[];autosize=1;strokeColor=none;fillColor=none;" parent="1" vertex="1">
          <mxGeometry x="30" y="355" width="40" height="30" as="geometry" />
        </mxCell>
        <mxCell id="g3IbCRf7m9BQPBcuyKC2-6" value="" style="endArrow=classic;html=1;rounded=0;" parent="1" edge="1">
          <mxGeometry width="50" height="50" relative="1" as="geometry">
            <mxPoint x="170" y="179.5" as="sourcePoint" />
            <mxPoint x="230" y="179.5" as="targetPoint" />
          </mxGeometry>
        </mxCell>
        <mxCell id="g3IbCRf7m9BQPBcuyKC2-7" value="11 Switch&lt;div&gt;&amp;nbsp;Octave Input&lt;/div&gt;" style="text;html=1;align=center;verticalAlign=middle;resizable=0;points=[];autosize=1;strokeColor=none;fillColor=none;" parent="1" vertex="1">
          <mxGeometry x="90" y="160" width="90" height="40" as="geometry" />
        </mxCell>
        <mxCell id="g3IbCRf7m9BQPBcuyKC2-8" value="" style="endArrow=classic;html=1;rounded=0;entryX=0;entryY=0.5;entryDx=0;entryDy=0;exitX=1;exitY=0.5;exitDx=0;exitDy=0;" parent="1" source="Pp8aDYr57oXMw8BSufgp-11" target="Pp8aDYr57oXMw8BSufgp-38" edge="1">
          <mxGeometry width="50" height="50" relative="1" as="geometry">
            <mxPoint x="350" y="159.66" as="sourcePoint" />
            <mxPoint x="410" y="159.66" as="targetPoint" />
          </mxGeometry>
        </mxCell>
        <mxCell id="g3IbCRf7m9BQPBcuyKC2-9" value="" style="endArrow=classic;html=1;rounded=0;exitX=0.5;exitY=0;exitDx=0;exitDy=0;" parent="1" edge="1">
          <mxGeometry width="50" height="50" relative="1" as="geometry">
            <mxPoint x="280" y="150" as="sourcePoint" />
            <mxPoint x="280" y="110" as="targetPoint" />
          </mxGeometry>
        </mxCell>
        <mxCell id="g3IbCRf7m9BQPBcuyKC2-12" value="PWM signal using&amp;nbsp;&lt;div&gt;Arduino Library&lt;/div&gt;" style="text;html=1;align=center;verticalAlign=middle;resizable=0;points=[];autosize=1;strokeColor=none;fillColor=none;" parent="1" vertex="1">
          <mxGeometry x="350" y="140" width="120" height="40" as="geometry" />
        </mxCell>
        <mxCell id="g3IbCRf7m9BQPBcuyKC2-13" value="Chorus" style="rounded=0;whiteSpace=wrap;html=1;" parent="1" vertex="1">
          <mxGeometry x="470" y="250" width="120" height="60" as="geometry" />
        </mxCell>
        <mxCell id="g3IbCRf7m9BQPBcuyKC2-14" value="Tremolo" style="rounded=0;whiteSpace=wrap;html=1;" parent="1" vertex="1">
          <mxGeometry x="470" y="350" width="120" height="60" as="geometry" />
        </mxCell>
        <mxCell id="g3IbCRf7m9BQPBcuyKC2-15" value="" style="endArrow=classic;html=1;rounded=0;" parent="1" edge="1">
          <mxGeometry width="50" height="50" relative="1" as="geometry">
            <mxPoint x="640" y="259.71" as="sourcePoint" />
            <mxPoint x="600" y="260.21" as="targetPoint" />
          </mxGeometry>
        </mxCell>
        <mxCell id="g3IbCRf7m9BQPBcuyKC2-16" value="" style="endArrow=classic;html=1;rounded=0;" parent="1" edge="1">
          <mxGeometry width="50" height="50" relative="1" as="geometry">
            <mxPoint x="640" y="279.36999999999995" as="sourcePoint" />
            <mxPoint x="600" y="279.86999999999995" as="targetPoint" />
          </mxGeometry>
        </mxCell>
        <mxCell id="g3IbCRf7m9BQPBcuyKC2-17" value="" style="endArrow=classic;html=1;rounded=0;" parent="1" edge="1">
          <mxGeometry width="50" height="50" relative="1" as="geometry">
            <mxPoint x="640" y="299.71" as="sourcePoint" />
            <mxPoint x="600" y="300.21" as="targetPoint" />
          </mxGeometry>
        </mxCell>
        <mxCell id="g3IbCRf7m9BQPBcuyKC2-26" value="" style="endArrow=classic;html=1;rounded=0;" parent="1" edge="1">
          <mxGeometry width="50" height="50" relative="1" as="geometry">
            <mxPoint x="529.66" y="210" as="sourcePoint" />
            <mxPoint x="529.66" y="250" as="targetPoint" />
          </mxGeometry>
        </mxCell>
        <mxCell id="g3IbCRf7m9BQPBcuyKC2-27" value="" style="endArrow=classic;html=1;rounded=0;" parent="1" edge="1">
          <mxGeometry width="50" height="50" relative="1" as="geometry">
            <mxPoint x="529.66" y="310" as="sourcePoint" />
            <mxPoint x="529.66" y="350" as="targetPoint" />
          </mxGeometry>
        </mxCell>
        <mxCell id="g3IbCRf7m9BQPBcuyKC2-28" value="" style="endArrow=classic;html=1;rounded=0;" parent="1" edge="1">
          <mxGeometry width="50" height="50" relative="1" as="geometry">
            <mxPoint x="529.66" y="410" as="sourcePoint" />
            <mxPoint x="529.66" y="450" as="targetPoint" />
          </mxGeometry>
        </mxCell>
        <mxCell id="g3IbCRf7m9BQPBcuyKC2-29" value="" style="endArrow=classic;html=1;rounded=0;" parent="1" edge="1">
          <mxGeometry width="50" height="50" relative="1" as="geometry">
            <mxPoint x="529.66" y="510" as="sourcePoint" />
            <mxPoint x="529.66" y="550" as="targetPoint" />
          </mxGeometry>
        </mxCell>
        <mxCell id="g3IbCRf7m9BQPBcuyKC2-31" value="" style="endArrow=classic;html=1;rounded=0;exitX=0.5;exitY=0;exitDx=0;exitDy=0;" parent="1" edge="1">
          <mxGeometry width="50" height="50" relative="1" as="geometry">
            <mxPoint x="280" y="60" as="sourcePoint" />
            <mxPoint x="280" y="20" as="targetPoint" />
          </mxGeometry>
        </mxCell>
        <mxCell id="g3IbCRf7m9BQPBcuyKC2-32" value="Active Effects Output Display" style="text;html=1;align=center;verticalAlign=middle;whiteSpace=wrap;rounded=0;" parent="1" vertex="1">
          <mxGeometry x="220" y="-10" width="110" height="30" as="geometry" />
        </mxCell>
        <mxCell id="g3IbCRf7m9BQPBcuyKC2-33" value="Toggled Effects" style="text;html=1;align=center;verticalAlign=middle;whiteSpace=wrap;rounded=0;" parent="1" vertex="1">
          <mxGeometry x="270" y="120" width="80" height="30" as="geometry" />
        </mxCell>
        <mxCell id="g3IbCRf7m9BQPBcuyKC2-34" value="" style="endArrow=classic;html=1;rounded=0;entryX=0;entryY=0.5;entryDx=0;entryDy=0;" parent="1" target="g3IbCRf7m9BQPBcuyKC2-58" edge="1">
          <mxGeometry width="50" height="50" relative="1" as="geometry">
            <mxPoint x="590" y="580.2099999999999" as="sourcePoint" />
            <mxPoint x="630" y="579.7099999999999" as="targetPoint" />
          </mxGeometry>
        </mxCell>
        <mxCell id="g3IbCRf7m9BQPBcuyKC2-35" value="" style="endArrow=classic;html=1;rounded=0;" parent="1" edge="1">
          <mxGeometry width="50" height="50" relative="1" as="geometry">
            <mxPoint x="630" y="165" as="sourcePoint" />
            <mxPoint x="590" y="165.5" as="targetPoint" />
          </mxGeometry>
        </mxCell>
        <mxCell id="g3IbCRf7m9BQPBcuyKC2-36" value="" style="endArrow=classic;html=1;rounded=0;" parent="1" edge="1">
          <mxGeometry width="50" height="50" relative="1" as="geometry">
            <mxPoint x="630" y="179.43" as="sourcePoint" />
            <mxPoint x="590" y="179.93" as="targetPoint" />
          </mxGeometry>
        </mxCell>
        <mxCell id="g3IbCRf7m9BQPBcuyKC2-37" value="" style="endArrow=classic;html=1;rounded=0;" parent="1" edge="1">
          <mxGeometry width="50" height="50" relative="1" as="geometry">
            <mxPoint x="630" y="195" as="sourcePoint" />
            <mxPoint x="590" y="195.5" as="targetPoint" />
          </mxGeometry>
        </mxCell>
        <mxCell id="g3IbCRf7m9BQPBcuyKC2-39" value="Adjustable Gain" style="text;html=1;align=center;verticalAlign=middle;resizable=0;points=[];autosize=1;strokeColor=none;fillColor=none;" parent="1" vertex="1">
          <mxGeometry x="620" y="150" width="110" height="30" as="geometry" />
        </mxCell>
        <mxCell id="g3IbCRf7m9BQPBcuyKC2-41" value="Adjustable Tone" style="text;html=1;align=center;verticalAlign=middle;resizable=0;points=[];autosize=1;strokeColor=none;fillColor=none;" parent="1" vertex="1">
          <mxGeometry x="620" y="165" width="110" height="30" as="geometry" />
        </mxCell>
        <mxCell id="g3IbCRf7m9BQPBcuyKC2-42" value="Adjustable Level" style="text;html=1;align=center;verticalAlign=middle;resizable=0;points=[];autosize=1;strokeColor=none;fillColor=none;" parent="1" vertex="1">
          <mxGeometry x="620" y="180" width="110" height="30" as="geometry" />
        </mxCell>
        <mxCell id="g3IbCRf7m9BQPBcuyKC2-43" value="Adjustable Rate" style="text;html=1;align=center;verticalAlign=middle;resizable=0;points=[];autosize=1;strokeColor=none;fillColor=none;" parent="1" vertex="1">
          <mxGeometry x="630" y="245" width="110" height="30" as="geometry" />
        </mxCell>
        <mxCell id="g3IbCRf7m9BQPBcuyKC2-44" value="Adjustable Depth" style="text;html=1;align=center;verticalAlign=middle;resizable=0;points=[];autosize=1;strokeColor=none;fillColor=none;" parent="1" vertex="1">
          <mxGeometry x="630" y="265" width="110" height="30" as="geometry" />
        </mxCell>
        <mxCell id="g3IbCRf7m9BQPBcuyKC2-45" value="On/Off Toggle" style="text;html=1;align=center;verticalAlign=middle;resizable=0;points=[];autosize=1;strokeColor=none;fillColor=none;" parent="1" vertex="1">
          <mxGeometry x="630" y="285" width="100" height="30" as="geometry" />
        </mxCell>
        <mxCell id="g3IbCRf7m9BQPBcuyKC2-55" value="Modified &amp;amp; Filtered Signal" style="text;html=1;align=center;verticalAlign=middle;resizable=0;points=[];autosize=1;strokeColor=none;fillColor=none;" parent="1" vertex="1">
          <mxGeometry x="520" y="510" width="160" height="30" as="geometry" />
        </mxCell>
        <mxCell id="g3IbCRf7m9BQPBcuyKC2-56" value="Adjustable Gain" style="text;html=1;align=center;verticalAlign=middle;resizable=0;points=[];autosize=1;strokeColor=none;fillColor=none;" parent="1" vertex="1">
          <mxGeometry x="475" y="640" width="110" height="30" as="geometry" />
        </mxCell>
        <mxCell id="g3IbCRf7m9BQPBcuyKC2-58" value="Speaker" style="rounded=0;whiteSpace=wrap;html=1;" parent="1" vertex="1">
          <mxGeometry x="670" y="550" width="120" height="60" as="geometry" />
        </mxCell>
        <mxCell id="g3IbCRf7m9BQPBcuyKC2-59" value="Amplified&amp;nbsp;&lt;div&gt;Signal&lt;/div&gt;" style="text;html=1;align=center;verticalAlign=middle;resizable=0;points=[];autosize=1;strokeColor=none;fillColor=none;" parent="1" vertex="1">
          <mxGeometry x="590" y="580" width="80" height="40" as="geometry" />
        </mxCell>
        <mxCell id="g3IbCRf7m9BQPBcuyKC2-60" value="" style="endArrow=classic;html=1;rounded=0;" parent="1" edge="1">
          <mxGeometry width="50" height="50" relative="1" as="geometry">
            <mxPoint x="790" y="579.93" as="sourcePoint" />
            <mxPoint x="830" y="579.43" as="targetPoint" />
          </mxGeometry>
        </mxCell>
        <mxCell id="g3IbCRf7m9BQPBcuyKC2-61" value="Audio Ouput" style="text;html=1;align=center;verticalAlign=middle;resizable=0;points=[];autosize=1;strokeColor=none;fillColor=none;" parent="1" vertex="1">
          <mxGeometry x="820" y="565" width="90" height="30" as="geometry" />
        </mxCell>
        <mxCell id="g3IbCRf7m9BQPBcuyKC2-62" value="Modified Signal" style="text;html=1;align=center;verticalAlign=middle;resizable=0;points=[];autosize=1;strokeColor=none;fillColor=none;" parent="1" vertex="1">
          <mxGeometry x="520" y="215" width="110" height="30" as="geometry" />
        </mxCell>
        <mxCell id="g3IbCRf7m9BQPBcuyKC2-64" value="Modified Signal" style="text;html=1;align=center;verticalAlign=middle;resizable=0;points=[];autosize=1;strokeColor=none;fillColor=none;" parent="1" vertex="1">
          <mxGeometry x="520" y="310" width="110" height="30" as="geometry" />
        </mxCell>
        <mxCell id="g3IbCRf7m9BQPBcuyKC2-65" value="Modified Signal" style="text;html=1;align=center;verticalAlign=middle;resizable=0;points=[];autosize=1;strokeColor=none;fillColor=none;" parent="1" vertex="1">
          <mxGeometry x="520" y="410" width="110" height="30" as="geometry" />
        </mxCell>
        <mxCell id="g3IbCRf7m9BQPBcuyKC2-67" value="" style="endArrow=classic;html=1;rounded=0;" parent="1" edge="1">
          <mxGeometry width="50" height="50" relative="1" as="geometry">
            <mxPoint x="200" y="370.21" as="sourcePoint" />
            <mxPoint x="240" y="369.71" as="targetPoint" />
          </mxGeometry>
        </mxCell>
        <mxCell id="g3IbCRf7m9BQPBcuyKC2-68" value="" style="endArrow=none;html=1;rounded=0;" parent="1" edge="1">
          <mxGeometry width="50" height="50" relative="1" as="geometry">
            <mxPoint x="240" y="370" as="sourcePoint" />
            <mxPoint x="240" y="270" as="targetPoint" />
          </mxGeometry>
        </mxCell>
        <mxCell id="g3IbCRf7m9BQPBcuyKC2-69" value="" style="endArrow=classic;html=1;rounded=0;entryX=0.333;entryY=0.974;entryDx=0;entryDy=0;entryPerimeter=0;" parent="1" target="Pp8aDYr57oXMw8BSufgp-11" edge="1">
          <mxGeometry width="50" height="50" relative="1" as="geometry">
            <mxPoint x="240" y="270" as="sourcePoint" />
            <mxPoint x="290" y="225" as="targetPoint" />
            <Array as="points">
              <mxPoint x="270" y="270" />
            </Array>
          </mxGeometry>
        </mxCell>
        <mxCell id="g3IbCRf7m9BQPBcuyKC2-70" value="" style="endArrow=classic;html=1;rounded=0;entryX=0.001;entryY=0.844;entryDx=0;entryDy=0;entryPerimeter=0;" parent="1" target="Pp8aDYr57oXMw8BSufgp-38" edge="1">
          <mxGeometry width="50" height="50" relative="1" as="geometry">
            <mxPoint x="240" y="290" as="sourcePoint" />
            <mxPoint x="310" y="270" as="targetPoint" />
            <Array as="points">
              <mxPoint x="310" y="290" />
              <mxPoint x="310" y="230" />
              <mxPoint x="390" y="230" />
              <mxPoint x="390" y="200" />
            </Array>
          </mxGeometry>
        </mxCell>
        <mxCell id="g3IbCRf7m9BQPBcuyKC2-71" value="" style="endArrow=classic;html=1;rounded=0;" parent="1" edge="1">
          <mxGeometry width="50" height="50" relative="1" as="geometry">
            <mxPoint x="630" y="359.71" as="sourcePoint" />
            <mxPoint x="590" y="360.21" as="targetPoint" />
          </mxGeometry>
        </mxCell>
        <mxCell id="g3IbCRf7m9BQPBcuyKC2-72" value="" style="endArrow=classic;html=1;rounded=0;" parent="1" edge="1">
          <mxGeometry width="50" height="50" relative="1" as="geometry">
            <mxPoint x="630" y="379.36999999999995" as="sourcePoint" />
            <mxPoint x="590" y="379.86999999999995" as="targetPoint" />
          </mxGeometry>
        </mxCell>
        <mxCell id="g3IbCRf7m9BQPBcuyKC2-73" value="" style="endArrow=classic;html=1;rounded=0;" parent="1" edge="1">
          <mxGeometry width="50" height="50" relative="1" as="geometry">
            <mxPoint x="630" y="399.71" as="sourcePoint" />
            <mxPoint x="590" y="400.21" as="targetPoint" />
          </mxGeometry>
        </mxCell>
        <mxCell id="g3IbCRf7m9BQPBcuyKC2-74" value="Adjustable Rate" style="text;html=1;align=center;verticalAlign=middle;resizable=0;points=[];autosize=1;strokeColor=none;fillColor=none;" parent="1" vertex="1">
          <mxGeometry x="620" y="345" width="110" height="30" as="geometry" />
        </mxCell>
        <mxCell id="g3IbCRf7m9BQPBcuyKC2-75" value="Adjustable Depth" style="text;html=1;align=center;verticalAlign=middle;resizable=0;points=[];autosize=1;strokeColor=none;fillColor=none;" parent="1" vertex="1">
          <mxGeometry x="620" y="365" width="110" height="30" as="geometry" />
        </mxCell>
        <mxCell id="g3IbCRf7m9BQPBcuyKC2-76" value="On/Off Toggle" style="text;html=1;align=center;verticalAlign=middle;resizable=0;points=[];autosize=1;strokeColor=none;fillColor=none;" parent="1" vertex="1">
          <mxGeometry x="620" y="385" width="100" height="30" as="geometry" />
        </mxCell>
        <mxCell id="g3IbCRf7m9BQPBcuyKC2-79" style="edgeStyle=orthogonalEdgeStyle;rounded=0;orthogonalLoop=1;jettySize=auto;html=1;entryX=-0.006;entryY=0.33;entryDx=0;entryDy=0;entryPerimeter=0;" parent="1" source="g3IbCRf7m9BQPBcuyKC2-2" target="g3IbCRf7m9BQPBcuyKC2-14" edge="1">
          <mxGeometry relative="1" as="geometry" />
        </mxCell>
      </root>
    </mxGraphModel>
  </diagram>
</mxfile>
